HIERARCHY
ROOT joint_Root
{
	OFFSET 0.0 0.0 0.0
	CHANNELS 6 Xposition Yposition Zposition Zrotation Xrotation Yrotation 
	JOINT Hips
	{
		OFFSET 4.5925 91.4895 -427.239
		CHANNELS 6 Xposition Yposition Zposition Zrotation Xrotation Yrotation 
		JOINT Spine
		{
			OFFSET 15.7357 0.0 0.0
			CHANNELS 6 Xposition Yposition Zposition Zrotation Xrotation Yrotation 
			JOINT Chest
			{
				OFFSET 8.98455 -0.406207 0.0
				CHANNELS 6 Xposition Yposition Zposition Zrotation Xrotation Yrotation 
				JOINT Neck
				{
					OFFSET 16.3773 0.0 0.0
					CHANNELS 6 Xposition Yposition Zposition Zrotation Xrotation Yrotation 
					JOINT Head
					{
						OFFSET 6.45672 0.0 0.0
						CHANNELS 6 Xposition Yposition Zposition Zrotation Xrotation Yrotation 
						End Site
						{
							OFFSET 0.0 0.0 0.0
						}
					}
				}
				JOINT Shoulder_L
				{
					OFFSET 12.9942 -0.242716 4.98039
					CHANNELS 6 Xposition Yposition Zposition Zrotation Xrotation Yrotation 
					JOINT UpperArm_L
					{
						OFFSET 5.34809 0.0 0.0
						CHANNELS 6 Xposition Yposition Zposition Zrotation Xrotation Yrotation 
						JOINT LowerArm_L
						{
							OFFSET 24.3286 1.87007e-05 0.0
							CHANNELS 6 Xposition Yposition Zposition Zrotation Xrotation Yrotation 
							JOINT Hand_L
							{
								OFFSET 22.2916 0.0 0.0
								CHANNELS 6 Xposition Yposition Zposition Zrotation Xrotation Yrotation 
								End Site
								{
									OFFSET 0.0 0.0 0.0
								}
							}
						}
					}
				}
				JOINT Shoulder_R
				{
					OFFSET 12.9945 -0.242716 -4.98039
					CHANNELS 6 Xposition Yposition Zposition Zrotation Xrotation Yrotation 
					JOINT UpperArm_R
					{
						OFFSET -5.34813 0.0 0.0
						CHANNELS 6 Xposition Yposition Zposition Zrotation Xrotation Yrotation 
						JOINT LowerArm_R
						{
							OFFSET -24.3289 0.000322201 0.0
							CHANNELS 6 Xposition Yposition Zposition Zrotation Xrotation Yrotation 
							JOINT Hand_R
							{
								OFFSET -22.2915 -0.000108084 0.0
								CHANNELS 6 Xposition Yposition Zposition Zrotation Xrotation Yrotation 
								End Site
								{
									OFFSET 0.0 0.0 0.0
								}
							}
						}
					}
				}
			}
		}
		JOINT UpperLeg_L
		{
			OFFSET -2.19248 -6.46944 0.0
			CHANNELS 6 Xposition Yposition Zposition Zrotation Xrotation Yrotation 
			JOINT LowerLeg_L
			{
				OFFSET 39.0811 0.0 -1.23785e-05
				CHANNELS 6 Xposition Yposition Zposition Zrotation Xrotation Yrotation 
				JOINT Foot_L
				{
					OFFSET 40.9854 0.0 -1.26872e-05
					CHANNELS 6 Xposition Yposition Zposition Zrotation Xrotation Yrotation 
					JOINT Toes_L
					{
						OFFSET 11.7543 0.0 0.0
						CHANNELS 6 Xposition Yposition Zposition Zrotation Xrotation Yrotation 
						End Site
						{
							OFFSET 0.0 0.0 0.0
						}
					}
				}
			}
		}
		JOINT UpperLeg_R
		{
			OFFSET -2.19251 6.46944 0.0
			CHANNELS 6 Xposition Yposition Zposition Zrotation Xrotation Yrotation 
			JOINT LowerLeg_R
			{
				OFFSET -39.0811 -0.00228153 -0.0401928
				CHANNELS 6 Xposition Yposition Zposition Zrotation Xrotation Yrotation 
				JOINT Foot_R
				{
					OFFSET -40.9854 0.0 0.0
					CHANNELS 6 Xposition Yposition Zposition Zrotation Xrotation Yrotation 
					JOINT Toes_R
					{
						OFFSET -11.7543 0.0 0.0
						CHANNELS 6 Xposition Yposition Zposition Zrotation Xrotation Yrotation 
						End Site
						{
							OFFSET 0.0 0.0 0.0
						}
					}
				}
			}
		}
	}
}
MOTION
Frames:	6
Frame Time:	0.0333333
0.000000 0.000000 0.000000 0.000000 0.000000 -0.000000 -2.222970 90.153400 -522.269000 89.665400 0.305127 6.816780 15.735700 0.000005 -0.000001 88.764300 79.133100 -87.541700 8.984550 -0.406207 -0.000000 13.968500 -0.397292 2.494760 16.377300 -0.000001 -0.000001 10.283900 -5.199870 3.770450 6.456720 -0.000001 -0.000000 4.711330 -4.797320 2.253350 12.994200 -0.242716 4.980390 -91.040900 3.310180 -72.533600 5.348090 -0.000007 -0.000001 -63.395700 35.518600 -20.690200 24.328600 0.000019 0.000005 9.847220 19.495700 -27.479200 22.291600 -0.000001 0.000005 12.009800 5.263030 1.086560 12.994500 -0.242716 -4.980390 88.348000 9.276720 -79.856800 -5.348130 -0.000001 -0.000004 -56.923600 29.438400 -22.333700 -24.328900 0.000322 -0.000009 1.464050 2.927180 -26.603600 -22.291500 -0.000108 -0.000004 17.537300 5.419890 -3.595390 -2.192480 -6.469440 -0.000000 -176.500000 -6.459290 -14.579700 39.081100 -0.000007 -0.000012 0.039704 -0.020881 62.253900 40.985400 -0.000006 -0.000013 2.423650 -7.294280 -65.599500 11.754300 -0.000000 0.000003 -0.001734 -0.025337 -17.607000 -2.192510 6.469440 -0.000001 -179.052000 19.492600 169.876000 -39.081100 -0.002282 -0.040193 -0.101437 0.148371 35.216300 -40.985400 0.000008 0.000006 7.971020 2.493010 -69.533400 -11.754300 -0.000006 -0.000006 -0.005593 -0.067090 -19.303300
0.000000 0.000000 0.000000 0.000000 0.000000 -0.000000 -2.397050 90.363900 -521.122000 89.902200 -0.979253 6.619360 15.735700 0.000005 -0.000001 90.769000 78.990000 -89.788400 8.984550 -0.406207 -0.000000 14.249900 0.347327 1.918620 16.377300 -0.000001 -0.000001 10.273600 -4.885050 3.728080 6.456720 -0.000001 -0.000000 4.290460 -4.845680 1.942350 12.994200 -0.242716 4.980390 -91.049600 3.270850 -72.197800 5.348090 -0.000007 -0.000001 -64.912700 34.806900 -18.515000 24.328600 0.000019 0.000005 9.571670 19.656700 -26.624500 22.291600 -0.000001 0.000005 11.502500 5.254290 1.319270 12.994500 -0.242716 -4.980390 88.494600 8.825720 -80.280600 -5.348130 -0.000001 -0.000004 -55.465400 29.373600 -25.449500 -24.328900 0.000322 -0.000009 1.721470 3.403150 -26.867200 -22.291500 -0.000108 -0.000004 17.729500 5.419180 -3.571580 -2.192480 -6.469440 -0.000000 -177.130000 -7.836710 -16.543200 39.081100 -0.000007 -0.000012 0.039366 -0.023708 58.937200 40.985400 -0.000006 -0.000013 1.661380 -5.915540 -66.438100 11.754300 -0.000000 0.000003 -0.001732 -0.025315 -17.606100 -2.192510 6.469440 -0.000001 -179.607000 20.536200 171.126000 -39.081100 -0.002282 -0.040193 -0.104711 0.158995 34.187900 -40.985400 0.000008 0.000006 8.317700 4.759050 -70.070300 -11.754300 -0.000006 -0.000006 -0.005936 -0.070256 -19.432400
0.000000 0.000000 0.000000 0.000000 0.000000 -0.000000 -2.584870 90.488200 -520.053000 89.885900 -2.150590 6.293010 15.735700 0.000005 -0.000001 92.286500 78.809500 -91.489200 8.984550 -0.406207 -0.000000 14.592400 0.929182 1.476610 16.377300 -0.000001 -0.000001 10.048700 -4.628400 3.633080 6.456720 -0.000001 -0.000000 3.895260 -4.731780 1.555670 12.994200 -0.242716 4.980390 -91.090800 3.355450 -71.980600 5.348090 -0.000007 -0.000001 -65.894800 34.043400 -16.724500 24.328600 0.000019 0.000005 9.299870 19.933800 -25.655400 22.291600 -0.000001 0.000005 11.018300 5.257490 1.233970 12.994500 -0.242716 -4.980390 88.626100 8.334950 -80.605700 -5.348130 -0.000001 -0.000004 -54.449200 28.853900 -28.429000 -24.328900 0.000322 -0.000009 1.837530 3.616900 -26.969200 -22.291500 -0.000108 -0.000004 17.762700 5.414520 -3.415670 -2.192480 -6.469440 -0.000000 -177.434000 -8.780570 -18.123400 39.081100 -0.000007 -0.000012 0.034717 -0.025404 53.801300 40.985400 -0.000006 -0.000013 0.859020 -3.900980 -66.078700 11.754300 -0.000000 0.000003 -0.002618 -0.036202 -18.049000 -2.192510 6.469440 -0.000001 -179.706000 20.955200 172.010000 -39.081100 -0.002282 -0.040193 -0.085287 0.134363 33.395700 -40.985400 0.000008 0.000006 8.871930 6.163480 -70.621800 -11.754300 -0.000006 -0.000006 -0.005712 -0.068198 -19.348400
0.000000 0.000000 0.000000 0.000000 0.000000 -0.000000 -2.689360 90.503100 -518.917000 89.886600 -3.144080 6.169460 15.735700 0.000005 -0.000001 93.179400 78.504600 -92.608400 8.984550 -0.406207 -0.000000 15.185800 1.294920 0.970478 16.377300 -0.000001 -0.000001 9.759030 -4.370950 3.552020 6.456720 -0.000001 -0.000000 3.360750 -4.609700 1.267090 12.994200 -0.242716 4.980390 -91.145400 3.495120 -71.843400 5.348090 -0.000007 -0.000001 -66.291700 33.618600 -15.457000 24.328600 0.000019 0.000005 9.091530 20.404600 -24.654200 22.291600 -0.000001 0.000005 10.841400 5.256930 1.248790 12.994500 -0.242716 -4.980390 88.723200 7.971910 -80.870200 -5.348130 -0.000001 -0.000004 -53.581000 28.241500 -31.180300 -24.328900 0.000322 -0.000009 1.869300 3.668130 -27.041000 -22.291500 -0.000108 -0.000004 18.120800 5.414300 -3.408190 -2.192480 -6.469440 -0.000000 -177.708000 -9.378360 -18.997000 39.081100 -0.000007 -0.000012 0.025479 -0.023388 47.446300 40.985400 -0.000006 -0.000013 -0.173949 -2.204700 -65.396600 11.754300 -0.000000 0.000003 -0.001730 -0.025287 -17.605000 -2.192510 6.469440 -0.000001 -179.947000 21.062800 172.900000 -39.081100 -0.002282 -0.040193 -0.071402 0.114781 33.055400 -40.985400 0.000008 0.000006 8.974150 7.255790 -71.321000 -11.754300 -0.000006 -0.000006 -0.005959 -0.070462 -19.440800
0.000000 0.000000 0.000000 0.000000 0.000000 -0.000000 -2.777100 90.400800 -517.755000 89.744100 -3.863710 5.886190 15.735700 0.000005 -0.000001 93.608400 78.182000 -93.223600 8.984550 -0.406207 -0.000000 15.822000 1.493050 0.563108 16.377300 -0.000001 -0.000001 9.241980 -4.165110 3.510780 6.456720 -0.000001 -0.000000 2.652170 -4.535030 1.007190 12.994200 -0.242716 4.980390 -91.180500 3.585180 -71.761600 5.348090 -0.000007 -0.000001 -66.438400 33.392700 -14.808500 24.328600 0.000019 0.000005 8.907790 21.123800 -23.504800 22.291600 -0.000001 0.000005 10.848100 5.250570 1.417530 12.994500 -0.242716 -4.980390 88.779900 7.714550 -80.984800 -5.348130 -0.000001 -0.000004 -52.636400 27.648600 -33.606300 -24.328900 0.000322 -0.000009 1.862440 3.587820 -27.471600 -22.291500 -0.000108 -0.000004 18.350300 5.420180 -3.604980 -2.192480 -6.469440 -0.000000 -177.909000 -9.427200 -19.893600 39.081100 -0.000007 -0.000012 0.015770 -0.018243 40.837900 40.985400 -0.000006 -0.000013 -0.064309 -1.434800 -64.382300 11.754300 -0.000000 0.000003 -0.001834 -0.026629 -17.659600 -2.192510 6.469440 -0.000001 -179.949000 20.783100 173.423000 -39.081100 -0.002282 -0.040193 -0.063809 0.102522 33.205900 -40.985400 0.000008 0.000006 9.396000 7.358610 -72.302100 -11.754300 -0.000006 -0.000006 -0.004497 -0.056508 -18.872000
0.000000 0.000000 0.000000 0.000000 0.000000 -0.000000 -2.824480 90.217300 -516.515000 89.634800 -4.312970 5.677010 15.735700 0.000005 -0.000001 93.636300 77.818100 -93.460200 8.984550 -0.406207 -0.000000 16.550700 1.534420 0.129580 16.377300 -0.000001 -0.000001 8.522080 -4.069850 3.500040 6.456720 -0.000001 -0.000000 1.755300 -4.453440 0.921818 12.994200 -0.242716 4.980390 -91.197000 3.651460 -71.836000 5.348090 -0.000007 -0.000001 -66.544200 32.918600 -14.500600 24.328600 0.000019 0.000005 8.646030 21.839600 -22.232100 22.291600 -0.000001 0.000005 10.779700 5.243470 1.604580 12.994500 -0.242716 -4.980390 88.823300 7.579050 -81.148600 -5.348130 -0.000001 -0.000004 -51.831200 27.048200 -35.245500 -24.328900 0.000322 -0.000009 1.950480 3.611980 -28.407300 -22.291500 -0.000108 -0.000004 18.622400 5.420340 -3.610410 -2.192480 -6.469440 -0.000000 -178.194000 -9.116950 -20.734700 39.081100 -0.000007 -0.000012 0.010421 -0.015048 34.699500 40.985400 -0.000006 -0.000013 0.982350 -1.058490 -62.020900 11.754300 -0.000000 0.000003 -0.001471 -0.021886 -17.466700 -2.192510 6.469440 -0.000001 179.997000 20.489800 173.952000 -39.081100 -0.002282 -0.040193 -0.027247 0.045874 33.653700 -40.985400 0.000008 0.000006 9.956130 7.272710 -73.529900 -11.754300 -0.000006 -0.000006 -0.004298 -0.054506 -18.790400
